<svg id="visual" viewBox="0 0 1920 1080" width="1920" height="1080" xmlns="http://www.w3.org/2000/svg" xmlns:xlink="http://www.w3.org/1999/xlink" version="1.1"><rect x="0" y="0" width="1920" height="1080" fill="#8395a2"></rect><path d="M0 745L35.5 742.8C71 740.7 142 736.3 213.2 736.5C284.3 736.7 355.7 741.3 426.8 755.3C498 769.3 569 792.7 640 806C711 819.3 782 822.7 853.2 809.5C924.3 796.3 995.7 766.7 1066.8 760.8C1138 755 1209 773 1280 780.8C1351 788.7 1422 786.3 1493.2 780.7C1564.3 775 1635.7 766 1706.8 756.2C1778 746.3 1849 735.7 1884.5 730.3L1920 725L1920 1081L1884.5 1081C1849 1081 1778 1081 1706.8 1081C1635.7 1081 1564.3 1081 1493.2 1081C1422 1081 1351 1081 1280 1081C1209 1081 1138 1081 1066.8 1081C995.7 1081 924.3 1081 853.2 1081C782 1081 711 1081 640 1081C569 1081 498 1081 426.8 1081C355.7 1081 284.3 1081 213.2 1081C142 1081 71 1081 35.5 1081L0 1081Z" fill="#003664"></path><path d="M0 849L35.5 856.3C71 863.7 142 878.3 213.2 870.7C284.3 863 355.7 833 426.8 833C498 833 569 863 640 876.8C711 890.7 782 888.3 853.2 882.5C924.3 876.7 995.7 867.3 1066.8 864.5C1138 861.7 1209 865.3 1280 858C1351 850.7 1422 832.3 1493.2 837.2C1564.3 842 1635.7 870 1706.8 884.7C1778 899.3 1849 900.7 1884.5 901.3L1920 902L1920 1081L1884.5 1081C1849 1081 1778 1081 1706.8 1081C1635.7 1081 1564.3 1081 1493.2 1081C1422 1081 1351 1081 1280 1081C1209 1081 1138 1081 1066.8 1081C995.7 1081 924.3 1081 853.2 1081C782 1081 711 1081 640 1081C569 1081 498 1081 426.8 1081C355.7 1081 284.3 1081 213.2 1081C142 1081 71 1081 35.5 1081L0 1081Z" fill="#002442"></path><path d="M0 865L35.5 868.3C71 871.7 142 878.3 213.2 878.8C284.3 879.3 355.7 873.7 426.8 875.7C498 877.7 569 887.3 640 900.7C711 914 782 931 853.2 930.2C924.3 929.3 995.7 910.7 1066.8 899.8C1138 889 1209 886 1280 892.8C1351 899.7 1422 916.3 1493.2 922.2C1564.3 928 1635.7 923 1706.8 914.8C1778 906.7 1849 895.3 1884.5 889.7L1920 884L1920 1081L1884.5 1081C1849 1081 1778 1081 1706.8 1081C1635.7 1081 1564.3 1081 1493.2 1081C1422 1081 1351 1081 1280 1081C1209 1081 1138 1081 1066.8 1081C995.7 1081 924.3 1081 853.2 1081C782 1081 711 1081 640 1081C569 1081 498 1081 426.8 1081C355.7 1081 284.3 1081 213.2 1081C142 1081 71 1081 35.5 1081L0 1081Z" fill="#001122"></path><path d="M0 953L35.5 952.2C71 951.3 142 949.7 213.2 946.8C284.3 944 355.7 940 426.8 939C498 938 569 940 640 949.2C711 958.3 782 974.7 853.2 977.5C924.3 980.3 995.7 969.7 1066.8 966.8C1138 964 1209 969 1280 964.5C1351 960 1422 946 1493.2 936C1564.3 926 1635.7 920 1706.8 919.5C1778 919 1849 924 1884.5 926.5L1920 929L1920 1081L1884.5 1081C1849 1081 1778 1081 1706.8 1081C1635.7 1081 1564.3 1081 1493.2 1081C1422 1081 1351 1081 1280 1081C1209 1081 1138 1081 1066.8 1081C995.7 1081 924.3 1081 853.2 1081C782 1081 711 1081 640 1081C569 1081 498 1081 426.8 1081C355.7 1081 284.3 1081 213.2 1081C142 1081 71 1081 35.5 1081L0 1081Z" fill="#000f1e"></path><path d="M0 1008L35.5 1002.7C71 997.3 142 986.7 213.2 982.7C284.3 978.7 355.7 981.3 426.8 990.7C498 1000 569 1016 640 1016.2C711 1016.3 782 1000.7 853.2 993.3C924.3 986 995.7 987 1066.8 987.2C1138 987.3 1209 986.7 1280 989.7C1351 992.7 1422 999.3 1493.2 1006C1564.3 1012.7 1635.7 1019.3 1706.8 1018.3C1778 1017.3 1849 1008.7 1884.5 1004.3L1920 1000L1920 1081L1884.5 1081C1849 1081 1778 1081 1706.8 1081C1635.7 1081 1564.3 1081 1493.2 1081C1422 1081 1351 1081 1280 1081C1209 1081 1138 1081 1066.8 1081C995.7 1081 924.3 1081 853.2 1081C782 1081 711 1081 640 1081C569 1081 498 1081 426.8 1081C355.7 1081 284.3 1081 213.2 1081C142 1081 71 1081 35.5 1081L0 1081Z" fill="#000d1b"></path></svg>